<?xml version="1.0" encoding="UTF-8" standalone="no"?>
<!-- Created with Inkscape (http://www.inkscape.org/) -->

<svg
   xmlns:dc="http://purl.org/dc/elements/1.1/"
   xmlns:cc="http://creativecommons.org/ns#"
   xmlns:rdf="http://www.w3.org/1999/02/22-rdf-syntax-ns#"
   xmlns:svg="http://www.w3.org/2000/svg"
   xmlns="http://www.w3.org/2000/svg"
   xmlns:sodipodi="http://sodipodi.sourceforge.net/DTD/sodipodi-0.dtd"
   xmlns:inkscape="http://www.inkscape.org/namespaces/inkscape"
   id="svg2"
   sodipodi:version="0.32"
   inkscape:version="0.48.2 r9819"
   width="500"
   height="500"
   version="1.0"
   sodipodi:docname="18+.svg"
   inkscape:output_extension="org.inkscape.output.svg.inkscape">
  <metadata
     id="metadata7">
    <rdf:RDF>
      <cc:Work
         rdf:about="">
        <dc:format>image/svg+xml</dc:format>
        <dc:type
           rdf:resource="http://purl.org/dc/dcmitype/StillImage" />
        <dc:title></dc:title>
      </cc:Work>
    </rdf:RDF>
  </metadata>
  <defs
     id="defs5">
    <inkscape:perspective
       sodipodi:type="inkscape:persp3d"
       inkscape:vp_x="0 : 526.18109 : 1"
       inkscape:vp_y="0 : 1000 : 0"
       inkscape:vp_z="744.09448 : 526.18109 : 1"
       inkscape:persp3d-origin="372.04724 : 350.78739 : 1"
       id="perspective9" />
    <inkscape:perspective
       id="perspective3330"
       inkscape:persp3d-origin="372.04724 : 350.78739 : 1"
       inkscape:vp_z="744.09448 : 526.18109 : 1"
       inkscape:vp_y="0 : 1000 : 0"
       inkscape:vp_x="0 : 526.18109 : 1"
       sodipodi:type="inkscape:persp3d" />
    <inkscape:perspective
       id="perspective3469"
       inkscape:persp3d-origin="372.04724 : 350.78739 : 1"
       inkscape:vp_z="744.09448 : 526.18109 : 1"
       inkscape:vp_y="0 : 1000 : 0"
       inkscape:vp_x="0 : 526.18109 : 1"
       sodipodi:type="inkscape:persp3d" />
    <inkscape:perspective
       id="perspective3539"
       inkscape:persp3d-origin="372.04724 : 350.78739 : 1"
       inkscape:vp_z="744.09448 : 526.18109 : 1"
       inkscape:vp_y="0 : 1000 : 0"
       inkscape:vp_x="0 : 526.18109 : 1"
       sodipodi:type="inkscape:persp3d" />
    <inkscape:perspective
       id="perspective3749"
       inkscape:persp3d-origin="372.04724 : 350.78739 : 1"
       inkscape:vp_z="744.09448 : 526.18109 : 1"
       inkscape:vp_y="0 : 1000 : 0"
       inkscape:vp_x="0 : 526.18109 : 1"
       sodipodi:type="inkscape:persp3d" />
    <inkscape:perspective
       id="perspective3819"
       inkscape:persp3d-origin="372.04724 : 350.78739 : 1"
       inkscape:vp_z="744.09448 : 526.18109 : 1"
       inkscape:vp_y="0 : 1000 : 0"
       inkscape:vp_x="0 : 526.18109 : 1"
       sodipodi:type="inkscape:persp3d" />
    <inkscape:perspective
       id="perspective3889"
       inkscape:persp3d-origin="372.04724 : 350.78739 : 1"
       inkscape:vp_z="744.09448 : 526.18109 : 1"
       inkscape:vp_y="0 : 1000 : 0"
       inkscape:vp_x="0 : 526.18109 : 1"
       sodipodi:type="inkscape:persp3d" />
    <inkscape:perspective
       id="perspective3959"
       inkscape:persp3d-origin="372.04724 : 350.78739 : 1"
       inkscape:vp_z="744.09448 : 526.18109 : 1"
       inkscape:vp_y="0 : 1000 : 0"
       inkscape:vp_x="0 : 526.18109 : 1"
       sodipodi:type="inkscape:persp3d" />
    <inkscape:perspective
       id="perspective4029"
       inkscape:persp3d-origin="372.04724 : 350.78739 : 1"
       inkscape:vp_z="744.09448 : 526.18109 : 1"
       inkscape:vp_y="0 : 1000 : 0"
       inkscape:vp_x="0 : 526.18109 : 1"
       sodipodi:type="inkscape:persp3d" />
    <inkscape:perspective
       id="perspective4099"
       inkscape:persp3d-origin="372.04724 : 350.78739 : 1"
       inkscape:vp_z="744.09448 : 526.18109 : 1"
       inkscape:vp_y="0 : 1000 : 0"
       inkscape:vp_x="0 : 526.18109 : 1"
       sodipodi:type="inkscape:persp3d" />
    <inkscape:perspective
       id="perspective4169"
       inkscape:persp3d-origin="372.04724 : 350.78739 : 1"
       inkscape:vp_z="744.09448 : 526.18109 : 1"
       inkscape:vp_y="0 : 1000 : 0"
       inkscape:vp_x="0 : 526.18109 : 1"
       sodipodi:type="inkscape:persp3d" />
    <inkscape:perspective
       id="perspective4239"
       inkscape:persp3d-origin="372.04724 : 350.78739 : 1"
       inkscape:vp_z="744.09448 : 526.18109 : 1"
       inkscape:vp_y="0 : 1000 : 0"
       inkscape:vp_x="0 : 526.18109 : 1"
       sodipodi:type="inkscape:persp3d" />
    <inkscape:perspective
       id="perspective4309"
       inkscape:persp3d-origin="372.04724 : 350.78739 : 1"
       inkscape:vp_z="744.09448 : 526.18109 : 1"
       inkscape:vp_y="0 : 1000 : 0"
       inkscape:vp_x="0 : 526.18109 : 1"
       sodipodi:type="inkscape:persp3d" />
    <inkscape:perspective
       id="perspective4449"
       inkscape:persp3d-origin="372.04724 : 350.78739 : 1"
       inkscape:vp_z="744.09448 : 526.18109 : 1"
       inkscape:vp_y="0 : 1000 : 0"
       inkscape:vp_x="0 : 526.18109 : 1"
       sodipodi:type="inkscape:persp3d" />
  </defs>
  <sodipodi:namedview
     inkscape:window-height="750"
     inkscape:window-width="1280"
     inkscape:pageshadow="2"
     inkscape:pageopacity="0.0"
     guidetolerance="10.0"
     gridtolerance="10.0"
     objecttolerance="10.0"
     borderopacity="1.0"
     bordercolor="#666666"
     pagecolor="#ffffff"
     id="base"
     showgrid="false"
     inkscape:zoom="0.543"
     inkscape:cx="-46.500921"
     inkscape:cy="337.22088"
     inkscape:window-x="93"
     inkscape:window-y="198"
     inkscape:current-layer="svg2"
     inkscape:window-maximized="0" />
  <path
     sodipodi:type="arc"
     style="opacity:1;fill:#d40000;fill-opacity:1;fill-rule:nonzero;stroke:none;stroke-width:1;stroke-linecap:square;stroke-linejoin:bevel;stroke-miterlimit:4;stroke-dasharray:none;stroke-dashoffset:0;stroke-opacity:1"
     id="path2384"
     sodipodi:cx="118.92857"
     sodipodi:cy="109.31818"
     sodipodi:rx="82.489174"
     sodipodi:ry="82.489174"
     d="M 201.41775,109.31818 A 82.489174,82.489174 0 1 1 36.4394,109.31818 A 82.489174,82.489174 0 1 1 201.41775,109.31818 z"
     transform="matrix(3.0307007,0,0,3.0307007,-110.43691,-81.310673)" />
  <path
     style="font-size:347.25384521px;font-style:normal;font-variant:normal;font-weight:bold;font-stretch:normal;text-align:start;line-height:125%;writing-mode:lr-tb;text-anchor:start;fill:#ffffff;fill-opacity:1;stroke:none;font-family:Arial;-inkscape-font-specification:Arial Bold"
     d="m 125.23598,369.55949 -41.7744,0 0,-176.47117 c -15.262836,15.99755 -33.251073,27.82894 -53.964786,35.49419 l 0,-42.49305 C 40.398732,182.0903 52.242238,174.50822 65.027335,163.34317 77.81231,152.17856 86.58344,139.15291 91.34074,124.26623 l 33.89524,0 0,245.29326 z m 98.41512,-131.8118 c -10.8029,-5.11015 -18.65728,-12.13677 -23.56314,-21.07989 -4.9059,-8.94282 -7.35885,-18.74677 -7.35884,-29.41186 -1e-5,-18.21905 5.67397,-33.27213 17.02195,-45.15929 11.34794,-11.88672 27.47788,-17.83018 48.38993,-17.83042 20.71364,2.4e-4 36.79404,5.9437 48.24125,17.83042 11.44693,11.88716 17.17046,26.94024 17.17061,45.15929 -1.5e-4,11.33164 -2.62653,21.41332 -7.87915,30.24506 -5.25291,8.83204 -12.63652,15.58093 -22.15085,20.24669 12.09116,5.44369 21.2835,13.38682 27.57705,23.82945 6.29327,10.44283 9.43997,22.4964 9.44012,36.16075 -1.5e-4,22.55193 -6.41745,40.88225 -19.25189,54.99103 -12.83473,14.10882 -29.90623,21.1632 -51.21452,21.16321 -19.82185,-1e-5 -36.32346,-5.83238 -49.50488,-17.49714 -15.56012,-13.77551 -23.34017,-32.66129 -23.34015,-56.65743 -2e-5,-13.21997 2.9237,-25.35687 8.77114,-36.41072 5.84739,-11.05363 15.06451,-19.57999 27.65137,-25.57915 l 0,0 z m 8.62248,-47.15897 c -6e-5,9.33198 2.35377,16.60856 7.06151,21.82977 4.70759,5.22153 10.97622,7.83221 18.80591,7.83206 7.9286,1.5e-4 14.27157,-2.6383 19.02891,-7.91538 4.75711,-5.27674 7.13572,-12.58111 7.13583,-21.91307 -1.1e-4,-8.77616 -2.35395,-15.80279 -7.06151,-21.07991 -4.70777,-5.27671 -10.92685,-7.91516 -18.65725,-7.91537 -8.0279,2.1e-4 -14.42042,2.66644 -19.17757,7.9987 -4.75728,5.33264 -7.13589,12.38705 -7.13583,21.1632 l 0,0 z m -3.86525,104.64958 c -6e-5,12.88685 2.94843,22.94075 8.84547,30.16175 5.8969,7.22109 13.25573,10.83158 22.0765,10.83156 8.62238,2e-5 15.75822,-3.47162 21.40752,-10.41497 5.6491,-6.94326 8.4737,-16.96939 8.47381,-30.07842 -1.1e-4,-11.4425 -2.87427,-20.63542 -8.62247,-27.57882 -5.74842,-6.94321 -13.03292,-10.41485 -21.85351,-10.41497 -10.2083,1.2e-4 -17.81489,3.94389 -22.81982,11.8314 -5.00505,7.88769 -7.50756,16.44184 -7.5075,25.66247 l 0,0 z"
     id="text3156"
     inkscape:connector-curvature="0" />
  <polyline
     transform="matrix(1.0531496,0,0,1.0531489,-262.97222,-191.64028)"
     id="polyline281"
     points="625.763,491.208 625.763,431.046 565.614,431.046 565.614,401.525 625.763,401.525 625.763,341.376 655.285,341.376 655.285,401.525 715.447,401.525 715.447,431.046 655.285,431.046 655.285,491.208 625.763,491.208"
     style="fill:#ffffff" />
</svg>
